<svg width="107" height="101" viewBox="0 0 107 101" fill="none" xmlns="http://www.w3.org/2000/svg">
<circle cx="41" cy="56" r="25" fill="white"/>
<g filter="url(#filter0_d)">
<path fill-rule="evenodd" clip-rule="evenodd" d="M15 56C15 49.1044 17.7393 42.4912 22.6152 37.6152C27.4912 32.7393 34.1044 30 41 30C47.8956 30 54.5088 32.7393 59.3848 37.6152C64.2607 42.4912 67 49.1044 67 56C67 62.8956 64.2607 69.5088 59.3848 74.3848C54.5088 79.2607 47.8956 82 41 82C34.1044 82 27.4912 79.2607 22.6152 74.3848C17.7393 69.5088 15 62.8956 15 56ZM42.1505 47.4005C42.4556 47.0954 42.6271 46.6815 42.6271 46.25C42.6271 45.8185 42.4556 45.4046 42.1505 45.0995C41.8454 44.7944 41.4315 44.6229 41 44.6229C40.5685 44.6229 40.1546 44.7944 39.8495 45.0995L30.0995 54.8495C29.9482 55.0004 29.8281 55.1798 29.7462 55.3772C29.6643 55.5746 29.6221 55.7863 29.6221 56C29.6221 56.2137 29.6643 56.4254 29.7462 56.6228C29.8281 56.8202 29.9482 56.9996 30.0995 57.1505L39.8495 66.9005C40.0006 67.0516 40.18 67.1714 40.3774 67.2532C40.5748 67.335 40.7863 67.3771 41 67.3771C41.2137 67.3771 41.4252 67.335 41.6226 67.2532C41.8201 67.1714 41.9994 67.0516 42.1505 66.9005C42.3016 66.7494 42.4214 66.57 42.5032 66.3726C42.585 66.1752 42.6271 65.9637 42.6271 65.75C42.6271 65.5363 42.585 65.3248 42.5032 65.1274C42.4214 64.9299 42.3016 64.7506 42.1505 64.5995L35.1728 57.625L50.75 57.625C51.181 57.625 51.5943 57.4538 51.8991 57.149C52.2038 56.8443 52.375 56.431 52.375 56C52.375 55.569 52.2038 55.1557 51.8991 54.8509C51.5943 54.5462 51.181 54.375 50.75 54.375L35.1728 54.375L42.1505 47.4005Z" fill="#9F9F9F"/>
</g>
<defs>
<filter id="filter0_d" x="-25" y="0" width="132" height="132" filterUnits="userSpaceOnUse" color-interpolation-filters="sRGB">
<feFlood flood-opacity="0" result="BackgroundImageFix"/>
<feColorMatrix in="SourceAlpha" type="matrix" values="0 0 0 0 0 0 0 0 0 0 0 0 0 0 0 0 0 0 127 0"/>
<feOffset dy="10"/>
<feGaussianBlur stdDeviation="20"/>
<feColorMatrix type="matrix" values="0 0 0 0 0 0 0 0 0 0 0 0 0 0 0 0 0 0 0.15 0"/>
<feBlend mode="normal" in2="BackgroundImageFix" result="effect1_dropShadow"/>
<feBlend mode="normal" in="SourceGraphic" in2="effect1_dropShadow" result="shape"/>
</filter>
</defs>
</svg>
