<svg width="108" height="101" viewBox="0 0 108 101" fill="none" xmlns="http://www.w3.org/2000/svg">
<circle cx="66" cy="56" r="25" fill="white"/>
<g filter="url(#filter0_d)">
<path fill-rule="evenodd" clip-rule="evenodd" d="M92 56C92 62.8956 89.2607 69.5088 84.3848 74.3848C79.5088 79.2607 72.8956 82 66 82C59.1044 82 52.4912 79.2607 47.6152 74.3848C42.7393 69.5088 40 62.8956 40 56C40 49.1044 42.7393 42.4912 47.6152 37.6152C52.4912 32.7393 59.1044 30 66 30C72.8956 30 79.5088 32.7393 84.3848 37.6152C89.2607 42.4912 92 49.1044 92 56ZM64.8495 64.5995C64.5444 64.9046 64.3729 65.3185 64.3729 65.75C64.3729 66.1815 64.5444 66.5954 64.8495 66.9005C65.1546 67.2056 65.5685 67.3771 66 67.3771C66.4315 67.3771 66.8454 67.2056 67.1505 66.9005L76.9005 57.1505C77.0518 56.9996 77.1719 56.8202 77.2538 56.6228C77.3357 56.4254 77.3779 56.2137 77.3779 56C77.3779 55.7863 77.3357 55.5746 77.2538 55.3772C77.1719 55.1798 77.0518 55.0004 76.9005 54.8495L67.1505 45.0995C66.9994 44.9484 66.82 44.8286 66.6226 44.7468C66.4252 44.665 66.2137 44.6229 66 44.6229C65.7863 44.6229 65.5748 44.665 65.3774 44.7468C65.18 44.8286 65.0006 44.9484 64.8495 45.0995C64.6984 45.2506 64.5786 45.43 64.4968 45.6274C64.415 45.8248 64.3729 46.0363 64.3729 46.25C64.3729 46.4637 64.415 46.6752 64.4968 46.8726C64.5786 47.07 64.6984 47.2494 64.8495 47.4005L71.8273 54.375H56.25C55.819 54.375 55.4057 54.5462 55.101 54.851C54.7962 55.1557 54.625 55.569 54.625 56C54.625 56.431 54.7962 56.8443 55.101 57.149C55.4057 57.4538 55.819 57.625 56.25 57.625H71.8273L64.8495 64.5995Z" fill="#00BB5D"/>
</g>
<defs>
<filter id="filter0_d" x="0" y="0" width="132" height="132" filterUnits="userSpaceOnUse" color-interpolation-filters="sRGB">
<feFlood flood-opacity="0" result="BackgroundImageFix"/>
<feColorMatrix in="SourceAlpha" type="matrix" values="0 0 0 0 0 0 0 0 0 0 0 0 0 0 0 0 0 0 127 0"/>
<feOffset dy="10"/>
<feGaussianBlur stdDeviation="20"/>
<feColorMatrix type="matrix" values="0 0 0 0 0 0 0 0 0 0 0 0 0 0 0 0 0 0 0.15 0"/>
<feBlend mode="normal" in2="BackgroundImageFix" result="effect1_dropShadow"/>
<feBlend mode="normal" in="SourceGraphic" in2="effect1_dropShadow" result="shape"/>
</filter>
</defs>
</svg>
